<?xml version="1.0" encoding="utf-8"?>
<!-- Generator: Adobe Illustrator 17.1.0, SVG Export Plug-In . SVG Version: 6.00 Build 0)  -->
<!DOCTYPE svg PUBLIC "-//W3C//DTD SVG 1.1//EN" "http://www.w3.org/Graphics/SVG/1.1/DTD/svg11.dtd">
<svg version="1.1" id="Layer_1" xmlns="http://www.w3.org/2000/svg" xmlns:xlink="http://www.w3.org/1999/xlink" x="0px" y="0px"
	 viewBox="0 0 7 14" enable-background="new 0 0 7 14" xml:space="preserve" width='7' height='14'>
<g id="Forma_1_копия_6">
	<g>
		<path fill-rule="evenodd" clip-rule="evenodd" fill="#FFFFFF" d="M6.8,0L5.1,0C3.2,0,2,1.4,2,3.5V5H0.3C0.1,5,0,5.2,0,5.3v2.3
			c0,0.2,0.1,0.3,0.3,0.3H2v5.8C2,13.9,2.1,14,2.2,14h2.2c0.1,0,0.3-0.1,0.3-0.3V7.9h2c0.1,0,0.3-0.1,0.3-0.3l0-2.3
			c0-0.1,0-0.1-0.1-0.2C6.8,5.1,6.7,5,6.7,5h-2V3.7c0-0.6,0.1-1,0.9-1l1.1,0C6.9,2.7,7,2.6,7,2.4V0.3C7,0.1,6.9,0,6.8,0z"/>
	</g>
</g>
</svg>
