<?xml version="1.0" encoding="utf-8"?>
<!-- Generator: Adobe Illustrator 17.1.0, SVG Export Plug-In . SVG Version: 6.00 Build 0)  -->
<!DOCTYPE svg PUBLIC "-//W3C//DTD SVG 1.1//EN" "http://www.w3.org/Graphics/SVG/1.1/DTD/svg11.dtd">
<svg version="1.1" id="Layer_1" xmlns="http://www.w3.org/2000/svg" xmlns:xlink="http://www.w3.org/1999/xlink" x="0px" y="0px"
	 viewBox="0 0 14 14" enable-background="new 0 0 14 14" xml:space="preserve" width='14' height='14'>
<g id="Forma_1_копия_2_">
	<g>
		<path fill-rule="evenodd" clip-rule="evenodd" fill="#FFFFFF" d="M10.2,0H3.9C1.7,0,0,1.7,0,3.9v6.3C0,12.3,1.7,14,3.9,14h6.3
			c2.1,0,3.9-1.7,3.9-3.9V3.9C14,1.7,12.3,0,10.2,0z M10.2,12.8H3.9c-1.4,0-2.6-1.2-2.6-2.6V3.9c0-1.4,1.2-2.6,2.6-2.6h6.3
			c1.4,0,2.6,1.2,2.6,2.6v6.3h0C12.8,11.6,11.6,12.8,10.2,12.8z M7,3.4C5,3.4,3.4,5,3.4,7c0,2,1.6,3.6,3.6,3.6S10.6,9,10.6,7
			C10.6,5,9,3.4,7,3.4z M7,9.4C5.7,9.4,4.6,8.3,4.6,7c0-1.3,1.1-2.4,2.4-2.4c1.3,0,2.4,1.1,2.4,2.4C9.4,8.3,8.3,9.4,7,9.4z
			 M10.8,2.3c-0.2,0-0.5,0.1-0.6,0.3C10,2.8,9.9,3,9.9,3.3c0,0.2,0.1,0.5,0.3,0.6c0.2,0.2,0.4,0.3,0.6,0.3c0.2,0,0.5-0.1,0.6-0.3
			c0.2-0.2,0.3-0.4,0.3-0.6c0-0.2-0.1-0.5-0.3-0.6C11.2,2.4,11,2.3,10.8,2.3z"/>
	</g>
</g>
</svg>
