<?xml version="1.0" encoding="utf-8"?>
<!-- Generator: Adobe Illustrator 17.1.0, SVG Export Plug-In . SVG Version: 6.00 Build 0)  -->
<!DOCTYPE svg PUBLIC "-//W3C//DTD SVG 1.1//EN" "http://www.w3.org/Graphics/SVG/1.1/DTD/svg11.dtd">
<svg version="1.1" id="Layer_1" xmlns="http://www.w3.org/2000/svg" xmlns:xlink="http://www.w3.org/1999/xlink" x="0px" y="0px"
	 viewBox="0 0 14 13" enable-background="new 0 0 14 13" xml:space="preserve" width='14' height='13'>
<g id="Shape_1_копия_5">
	<g>
		<path fill-rule="evenodd" clip-rule="evenodd" fill="#FFFFFF" d="M13.5,0L0.2,5.5c-0.3,0.1-0.3,0.6,0,0.8l3.2,1.3l1.3,4.3
			c0.1,0.3,0.4,0.4,0.6,0.2l1.8-1.6c0.2-0.2,0.5-0.2,0.7,0l3.2,2.5c0.2,0.2,0.5,0,0.6-0.2L14,0.5C14.1,0.2,13.8-0.1,13.5,0z M11,2.9
			L5.8,8C5.6,8.2,5.5,8.5,5.4,8.7l-0.2,1.4c0,0.2-0.3,0.2-0.3,0L4.2,7.6C4.2,7.3,4.3,7,4.5,6.8l6.3-4.1C11,2.6,11.1,2.8,11,2.9z"/>
	</g>
</g>
</svg>
