<?xml version="1.0" encoding="utf-8"?>
<!-- Generator: Adobe Illustrator 17.1.0, SVG Export Plug-In . SVG Version: 6.00 Build 0)  -->
<!DOCTYPE svg PUBLIC "-//W3C//DTD SVG 1.1//EN" "http://www.w3.org/Graphics/SVG/1.1/DTD/svg11.dtd">
<svg version="1.1" id="Layer_1" xmlns="http://www.w3.org/2000/svg" xmlns:xlink="http://www.w3.org/1999/xlink" x="0px" y="0px"
	 viewBox="0 0 14 12" enable-background="new 0 0 14 12" xml:space="preserve" width='14' height='12'>
<g id="Forma_1_копия_1_">
	<g>
		<path fill-rule="evenodd" clip-rule="evenodd" fill="#FFFFFF" d="M14,1.4c-0.5,0.2-1.1,0.4-1.6,0.5c0.6-0.4,1-1,1.3-1.7
			c-0.6,0.3-1.2,0.6-1.8,0.7c-0.5-0.6-1.3-1-2.1-1C8.1,0,6.8,1.4,6.8,3c0,0.2,0,0.5,0.1,0.7C4.5,3.6,2.4,2.4,1,0.6
			C0.7,1,0.6,1.5,0.6,2.1c0,1.1,0.5,2,1.3,2.5c-0.5,0-0.9-0.2-1.3-0.4c0,0,0,0,0,0c0,1.5,1,2.7,2.3,3C2.6,7.3,2.4,7.3,2.1,7.3
			c-0.2,0-0.4,0-0.5-0.1C1.9,8.5,3,9.4,4.3,9.4c-1,0.8-2.2,1.3-3.6,1.3c-0.2,0-0.5,0-0.7,0C1.3,11.5,2.8,12,4.4,12
			c5.3,0,8.2-4.6,8.2-8.6c0-0.1,0-0.3,0-0.4C13.1,2.6,13.6,2,14,1.4z"/>
	</g>
</g>
</svg>
